<mxfile host="app.diagrams.net" agent="Mozilla/5.0 (Macintosh; Intel Mac OS X 10_15_7) AppleWebKit/537.36 (KHTML, like Gecko) Chrome/130.0.0.0 Safari/537.36" version="24.8.4">
  <diagram name="Page-1" id="mKB1FD7oYi6oJFY-MThe">
    <mxGraphModel dx="1687" dy="924" grid="1" gridSize="10" guides="1" tooltips="1" connect="1" arrows="1" fold="1" page="1" pageScale="1" pageWidth="850" pageHeight="1100" math="0" shadow="0">
      <root>
        <mxCell id="0" />
        <mxCell id="1" parent="0" />
        <mxCell id="t2_muGHGEYKVTrrBP8fU-1" value="FACTURA" style="rounded=0;whiteSpace=wrap;html=1;" vertex="1" parent="1">
          <mxGeometry x="30" y="270" width="120" height="60" as="geometry" />
        </mxCell>
        <mxCell id="t2_muGHGEYKVTrrBP8fU-3" value="PRODUCTO" style="rounded=0;whiteSpace=wrap;html=1;" vertex="1" parent="1">
          <mxGeometry x="510" y="600" width="120" height="60" as="geometry" />
        </mxCell>
        <mxCell id="t2_muGHGEYKVTrrBP8fU-4" value="" style="endArrow=none;html=1;rounded=0;entryX=0.5;entryY=1;entryDx=0;entryDy=0;exitX=0.5;exitY=0;exitDx=0;exitDy=0;" edge="1" parent="1" source="t2_muGHGEYKVTrrBP8fU-8" target="t2_muGHGEYKVTrrBP8fU-2">
          <mxGeometry width="50" height="50" relative="1" as="geometry">
            <mxPoint x="320" y="540" as="sourcePoint" />
            <mxPoint x="370" y="490" as="targetPoint" />
          </mxGeometry>
        </mxCell>
        <mxCell id="t2_muGHGEYKVTrrBP8fU-5" value="" style="endArrow=none;html=1;rounded=0;entryX=0;entryY=0.5;entryDx=0;entryDy=0;exitX=1;exitY=0.5;exitDx=0;exitDy=0;" edge="1" parent="1" source="t2_muGHGEYKVTrrBP8fU-6" target="t2_muGHGEYKVTrrBP8fU-2">
          <mxGeometry width="50" height="50" relative="1" as="geometry">
            <mxPoint x="320" y="540" as="sourcePoint" />
            <mxPoint x="370" y="490" as="targetPoint" />
          </mxGeometry>
        </mxCell>
        <mxCell id="t2_muGHGEYKVTrrBP8fU-7" value="" style="endArrow=none;html=1;rounded=0;entryX=0;entryY=0.5;entryDx=0;entryDy=0;exitX=1;exitY=0.5;exitDx=0;exitDy=0;" edge="1" parent="1" source="t2_muGHGEYKVTrrBP8fU-1" target="t2_muGHGEYKVTrrBP8fU-6">
          <mxGeometry width="50" height="50" relative="1" as="geometry">
            <mxPoint x="150" y="300" as="sourcePoint" />
            <mxPoint x="510" y="300" as="targetPoint" />
          </mxGeometry>
        </mxCell>
        <mxCell id="t2_muGHGEYKVTrrBP8fU-6" value="contener" style="rhombus;whiteSpace=wrap;html=1;" vertex="1" parent="1">
          <mxGeometry x="290" y="260" width="80" height="80" as="geometry" />
        </mxCell>
        <mxCell id="t2_muGHGEYKVTrrBP8fU-9" value="" style="endArrow=none;html=1;rounded=0;entryX=0.5;entryY=1;entryDx=0;entryDy=0;exitX=0.5;exitY=0;exitDx=0;exitDy=0;" edge="1" parent="1" source="t2_muGHGEYKVTrrBP8fU-3" target="t2_muGHGEYKVTrrBP8fU-8">
          <mxGeometry width="50" height="50" relative="1" as="geometry">
            <mxPoint x="570" y="600" as="sourcePoint" />
            <mxPoint x="570" y="330" as="targetPoint" />
          </mxGeometry>
        </mxCell>
        <mxCell id="t2_muGHGEYKVTrrBP8fU-8" value="disponer" style="rhombus;whiteSpace=wrap;html=1;" vertex="1" parent="1">
          <mxGeometry x="530" y="430" width="80" height="80" as="geometry" />
        </mxCell>
        <mxCell id="t2_muGHGEYKVTrrBP8fU-10" value="" style="ellipse;whiteSpace=wrap;html=1;aspect=fixed;fillColor=#000000;" vertex="1" parent="1">
          <mxGeometry x="30" y="210" width="20" height="20" as="geometry" />
        </mxCell>
        <mxCell id="t2_muGHGEYKVTrrBP8fU-11" value="" style="endArrow=none;html=1;rounded=0;entryX=0.5;entryY=1;entryDx=0;entryDy=0;" edge="1" parent="1" target="t2_muGHGEYKVTrrBP8fU-10">
          <mxGeometry width="50" height="50" relative="1" as="geometry">
            <mxPoint x="40" y="271" as="sourcePoint" />
            <mxPoint x="370" y="380" as="targetPoint" />
          </mxGeometry>
        </mxCell>
        <mxCell id="t2_muGHGEYKVTrrBP8fU-12" value="NumFactura" style="text;html=1;align=center;verticalAlign=middle;whiteSpace=wrap;rounded=0;rotation=-90;" vertex="1" parent="1">
          <mxGeometry y="150" width="80" height="30" as="geometry" />
        </mxCell>
        <mxCell id="t2_muGHGEYKVTrrBP8fU-14" value="" style="ellipse;whiteSpace=wrap;html=1;aspect=fixed;fillColor=#ffffff;" vertex="1" parent="1">
          <mxGeometry x="80" y="209" width="20" height="20" as="geometry" />
        </mxCell>
        <mxCell id="t2_muGHGEYKVTrrBP8fU-15" value="" style="endArrow=none;html=1;rounded=0;" edge="1" parent="1" target="t2_muGHGEYKVTrrBP8fU-14">
          <mxGeometry width="50" height="50" relative="1" as="geometry">
            <mxPoint x="90" y="270" as="sourcePoint" />
            <mxPoint x="420" y="379" as="targetPoint" />
          </mxGeometry>
        </mxCell>
        <mxCell id="t2_muGHGEYKVTrrBP8fU-16" value="" style="ellipse;whiteSpace=wrap;html=1;aspect=fixed;" vertex="1" parent="1">
          <mxGeometry x="130" y="210" width="20" height="20" as="geometry" />
        </mxCell>
        <mxCell id="t2_muGHGEYKVTrrBP8fU-17" value="" style="endArrow=none;html=1;rounded=0;entryX=0.5;entryY=1;entryDx=0;entryDy=0;" edge="1" parent="1" target="t2_muGHGEYKVTrrBP8fU-16">
          <mxGeometry width="50" height="50" relative="1" as="geometry">
            <mxPoint x="140" y="270" as="sourcePoint" />
            <mxPoint x="470" y="380" as="targetPoint" />
          </mxGeometry>
        </mxCell>
        <mxCell id="t2_muGHGEYKVTrrBP8fU-19" value="FechaFactura" style="text;html=1;align=center;verticalAlign=middle;whiteSpace=wrap;rounded=0;rotation=-90;" vertex="1" parent="1">
          <mxGeometry x="50" y="150" width="80" height="30" as="geometry" />
        </mxCell>
        <mxCell id="t2_muGHGEYKVTrrBP8fU-20" value="ImporteFactura" style="text;html=1;align=center;verticalAlign=middle;whiteSpace=wrap;rounded=0;rotation=-90;" vertex="1" parent="1">
          <mxGeometry x="95" y="145" width="90" height="30" as="geometry" />
        </mxCell>
        <mxCell id="t2_muGHGEYKVTrrBP8fU-21" value="" style="ellipse;whiteSpace=wrap;html=1;aspect=fixed;fillColor=#ffffff;" vertex="1" parent="1">
          <mxGeometry x="50" y="370" width="20" height="20" as="geometry" />
        </mxCell>
        <mxCell id="t2_muGHGEYKVTrrBP8fU-22" value="" style="endArrow=none;html=1;rounded=0;" edge="1" parent="1">
          <mxGeometry width="50" height="50" relative="1" as="geometry">
            <mxPoint x="59.620000000000005" y="371" as="sourcePoint" />
            <mxPoint x="59.620000000000005" y="330" as="targetPoint" />
          </mxGeometry>
        </mxCell>
        <mxCell id="t2_muGHGEYKVTrrBP8fU-24" value="" style="endArrow=none;html=1;rounded=0;" edge="1" parent="1">
          <mxGeometry width="50" height="50" relative="1" as="geometry">
            <mxPoint x="119.62" y="371" as="sourcePoint" />
            <mxPoint x="119.62" y="330" as="targetPoint" />
          </mxGeometry>
        </mxCell>
        <mxCell id="t2_muGHGEYKVTrrBP8fU-25" value="DNICliente" style="text;html=1;align=center;verticalAlign=middle;whiteSpace=wrap;rounded=0;rotation=-90;" vertex="1" parent="1">
          <mxGeometry x="20" y="416" width="80" height="30" as="geometry" />
        </mxCell>
        <mxCell id="t2_muGHGEYKVTrrBP8fU-26" value="NombreCliente" style="text;html=1;align=center;verticalAlign=middle;whiteSpace=wrap;rounded=0;rotation=-90;" vertex="1" parent="1">
          <mxGeometry x="70" y="425" width="100" height="30" as="geometry" />
        </mxCell>
        <mxCell id="t2_muGHGEYKVTrrBP8fU-27" value="" style="ellipse;whiteSpace=wrap;html=1;aspect=fixed;fillColor=#000000;" vertex="1" parent="1">
          <mxGeometry x="510" y="209" width="20" height="20" as="geometry" />
        </mxCell>
        <mxCell id="t2_muGHGEYKVTrrBP8fU-28" value="" style="endArrow=none;html=1;rounded=0;entryX=0.5;entryY=1;entryDx=0;entryDy=0;" edge="1" parent="1" target="t2_muGHGEYKVTrrBP8fU-27">
          <mxGeometry width="50" height="50" relative="1" as="geometry">
            <mxPoint x="520" y="270" as="sourcePoint" />
            <mxPoint x="850" y="379" as="targetPoint" />
          </mxGeometry>
        </mxCell>
        <mxCell id="t2_muGHGEYKVTrrBP8fU-29" value="" style="ellipse;whiteSpace=wrap;html=1;aspect=fixed;fillColor=#000000;" vertex="1" parent="1">
          <mxGeometry x="540" y="208" width="20" height="20" as="geometry" />
        </mxCell>
        <mxCell id="t2_muGHGEYKVTrrBP8fU-30" value="" style="endArrow=none;html=1;rounded=0;" edge="1" parent="1">
          <mxGeometry width="50" height="50" relative="1" as="geometry">
            <mxPoint x="549.83" y="270" as="sourcePoint" />
            <mxPoint x="550.1730489344395" y="227.99931610542205" as="targetPoint" />
          </mxGeometry>
        </mxCell>
        <mxCell id="t2_muGHGEYKVTrrBP8fU-33" value="IdLineaFactura" style="text;html=1;align=center;verticalAlign=middle;whiteSpace=wrap;rounded=0;rotation=-90;" vertex="1" parent="1">
          <mxGeometry x="468.13" y="140.63" width="98.75" height="30" as="geometry" />
        </mxCell>
        <mxCell id="t2_muGHGEYKVTrrBP8fU-35" value="CodigoProducto" style="text;html=1;align=center;verticalAlign=middle;whiteSpace=wrap;rounded=0;rotation=-90;" vertex="1" parent="1">
          <mxGeometry x="532.5" y="140.63" width="115" height="30" as="geometry" />
        </mxCell>
        <mxCell id="t2_muGHGEYKVTrrBP8fU-36" value="" style="ellipse;whiteSpace=wrap;html=1;aspect=fixed;fillColor=#000000;" vertex="1" parent="1">
          <mxGeometry x="520" y="700" width="20" height="20" as="geometry" />
        </mxCell>
        <mxCell id="t2_muGHGEYKVTrrBP8fU-37" value="" style="endArrow=none;html=1;rounded=0;entryX=0.5;entryY=1;entryDx=0;entryDy=0;" edge="1" parent="1">
          <mxGeometry width="50" height="50" relative="1" as="geometry">
            <mxPoint x="529.23" y="700" as="sourcePoint" />
            <mxPoint x="529.23" y="659" as="targetPoint" />
          </mxGeometry>
        </mxCell>
        <mxCell id="t2_muGHGEYKVTrrBP8fU-40" value="" style="endArrow=none;html=1;rounded=0;entryX=0.5;entryY=1;entryDx=0;entryDy=0;" edge="1" parent="1">
          <mxGeometry width="50" height="50" relative="1" as="geometry">
            <mxPoint x="608.62" y="701" as="sourcePoint" />
            <mxPoint x="608.62" y="660" as="targetPoint" />
          </mxGeometry>
        </mxCell>
        <mxCell id="t2_muGHGEYKVTrrBP8fU-39" value="" style="ellipse;whiteSpace=wrap;html=1;aspect=fixed;" vertex="1" parent="1">
          <mxGeometry x="599" y="700" width="20" height="20" as="geometry" />
        </mxCell>
        <mxCell id="t2_muGHGEYKVTrrBP8fU-41" value="CodigoProducto" style="text;html=1;align=center;verticalAlign=middle;whiteSpace=wrap;rounded=0;rotation=-90;" vertex="1" parent="1">
          <mxGeometry x="481.25" y="760" width="98.75" height="30" as="geometry" />
        </mxCell>
        <mxCell id="t2_muGHGEYKVTrrBP8fU-42" value="&lt;span style=&quot;color: rgb(0, 0, 0); font-family: Helvetica; font-size: 12px; font-style: normal; font-variant-ligatures: normal; font-variant-caps: normal; font-weight: 400; letter-spacing: normal; orphans: 2; text-align: center; text-indent: 0px; text-transform: none; widows: 2; word-spacing: 0px; -webkit-text-stroke-width: 0px; white-space: normal; background-color: rgb(251, 251, 251); text-decoration-thickness: initial; text-decoration-style: initial; text-decoration-color: initial; display: inline !important; float: none;&quot;&gt;NomProducto&lt;/span&gt;" style="text;whiteSpace=wrap;html=1;rotation=-90;" vertex="1" parent="1">
          <mxGeometry x="533" y="744" width="86" height="40" as="geometry" />
        </mxCell>
        <mxCell id="t2_muGHGEYKVTrrBP8fU-44" value="" style="ellipse;whiteSpace=wrap;html=1;aspect=fixed;" vertex="1" parent="1">
          <mxGeometry x="560" y="700" width="20" height="20" as="geometry" />
        </mxCell>
        <mxCell id="t2_muGHGEYKVTrrBP8fU-45" value="" style="endArrow=none;html=1;rounded=0;entryX=0.5;entryY=1;entryDx=0;entryDy=0;exitX=0.5;exitY=0;exitDx=0;exitDy=0;" edge="1" parent="1" source="t2_muGHGEYKVTrrBP8fU-44" target="t2_muGHGEYKVTrrBP8fU-3">
          <mxGeometry width="50" height="50" relative="1" as="geometry">
            <mxPoint x="610" y="510" as="sourcePoint" />
            <mxPoint x="610" y="469" as="targetPoint" />
          </mxGeometry>
        </mxCell>
        <mxCell id="t2_muGHGEYKVTrrBP8fU-47" value="&lt;span style=&quot;color: rgb(0, 0, 0); font-family: Helvetica; font-size: 12px; font-style: normal; font-variant-ligatures: normal; font-variant-caps: normal; font-weight: 400; letter-spacing: normal; orphans: 2; text-align: center; text-indent: 0px; text-transform: none; widows: 2; word-spacing: 0px; -webkit-text-stroke-width: 0px; white-space: normal; background-color: rgb(251, 251, 251); text-decoration-thickness: initial; text-decoration-style: initial; text-decoration-color: initial; display: inline !important; float: none;&quot;&gt;ImporteProducto&lt;/span&gt;" style="text;whiteSpace=wrap;html=1;rotation=-90;" vertex="1" parent="1">
          <mxGeometry x="566.88" y="755" width="94" height="40" as="geometry" />
        </mxCell>
        <mxCell id="t2_muGHGEYKVTrrBP8fU-49" value="" style="endArrow=none;html=1;rounded=0;exitX=0;exitY=0.5;exitDx=0;exitDy=0;" edge="1" parent="1">
          <mxGeometry width="50" height="50" relative="1" as="geometry">
            <mxPoint x="660.8799999999899" y="299.78000000000003" as="sourcePoint" />
            <mxPoint x="610" y="299.78" as="targetPoint" />
          </mxGeometry>
        </mxCell>
        <mxCell id="t2_muGHGEYKVTrrBP8fU-50" value="&lt;span style=&quot;color: rgb(0, 0, 0); font-family: Helvetica; font-size: 12px; font-style: normal; font-variant-ligatures: normal; font-variant-caps: normal; font-weight: 400; letter-spacing: normal; orphans: 2; text-align: center; text-indent: 0px; text-transform: none; widows: 2; word-spacing: 0px; -webkit-text-stroke-width: 0px; white-space: normal; background-color: rgb(251, 251, 251); text-decoration-thickness: initial; text-decoration-style: initial; text-decoration-color: initial; display: inline !important; float: none;&quot;&gt;CantidadProducto&lt;/span&gt;" style="text;whiteSpace=wrap;html=1;rotation=-90;" vertex="1" parent="1">
          <mxGeometry x="570" y="140.63" width="100" height="30" as="geometry" />
        </mxCell>
        <mxCell id="t2_muGHGEYKVTrrBP8fU-48" value="" style="ellipse;whiteSpace=wrap;html=1;aspect=fixed;" vertex="1" parent="1">
          <mxGeometry x="660.88" y="290" width="20" height="20" as="geometry" />
        </mxCell>
        <mxCell id="t2_muGHGEYKVTrrBP8fU-55" value="" style="ellipse;whiteSpace=wrap;html=1;aspect=fixed;fillColor=#000000;" vertex="1" parent="1">
          <mxGeometry x="580" y="208" width="20" height="20" as="geometry" />
        </mxCell>
        <mxCell id="t2_muGHGEYKVTrrBP8fU-57" value="" style="endArrow=none;html=1;rounded=0;" edge="1" parent="1">
          <mxGeometry width="50" height="50" relative="1" as="geometry">
            <mxPoint x="589.83" y="270" as="sourcePoint" />
            <mxPoint x="590.1730489344395" y="227.99931610542205" as="targetPoint" />
          </mxGeometry>
        </mxCell>
        <mxCell id="t2_muGHGEYKVTrrBP8fU-58" value="" style="endArrow=none;html=1;rounded=0;" edge="1" parent="1">
          <mxGeometry width="50" height="50" relative="1" as="geometry">
            <mxPoint x="620" y="270" as="sourcePoint" />
            <mxPoint x="620.3430489344395" y="227.99931610542205" as="targetPoint" />
          </mxGeometry>
        </mxCell>
        <mxCell id="t2_muGHGEYKVTrrBP8fU-59" value="" style="ellipse;whiteSpace=wrap;html=1;aspect=fixed;fillColor=#FFFFFF;" vertex="1" parent="1">
          <mxGeometry x="610" y="208" width="20" height="20" as="geometry" />
        </mxCell>
        <mxCell id="t2_muGHGEYKVTrrBP8fU-60" value="NumFactura" style="text;html=1;align=center;verticalAlign=middle;whiteSpace=wrap;rounded=0;rotation=-90;" vertex="1" parent="1">
          <mxGeometry x="508.75" y="149.13" width="83.75" height="30" as="geometry" />
        </mxCell>
        <mxCell id="t2_muGHGEYKVTrrBP8fU-61" value="ImporteLineaFactura" style="text;html=1;align=center;verticalAlign=middle;whiteSpace=wrap;rounded=0;rotation=0;" vertex="1" parent="1">
          <mxGeometry x="680.88" y="285" width="128.38" height="30" as="geometry" />
        </mxCell>
        <mxCell id="t2_muGHGEYKVTrrBP8fU-62" value="" style="shape=or;whiteSpace=wrap;html=1;fillColor=#000000;" vertex="1" parent="1">
          <mxGeometry x="60" y="370" width="10" height="20" as="geometry" />
        </mxCell>
        <mxCell id="t2_muGHGEYKVTrrBP8fU-23" value="" style="ellipse;whiteSpace=wrap;html=1;aspect=fixed;fillColor=#ffffff;" vertex="1" parent="1">
          <mxGeometry x="110" y="370" width="20" height="20" as="geometry" />
        </mxCell>
        <mxCell id="t2_muGHGEYKVTrrBP8fU-64" value="&lt;font style=&quot;font-size: 16px;&quot;&gt;1:N&lt;/font&gt;" style="text;html=1;align=center;verticalAlign=middle;whiteSpace=wrap;rounded=0;" vertex="1" parent="1">
          <mxGeometry x="300" y="320" width="60" height="70" as="geometry" />
        </mxCell>
        <mxCell id="t2_muGHGEYKVTrrBP8fU-65" value="&lt;font style=&quot;font-size: 16px;&quot;&gt;N:1&lt;/font&gt;" style="text;html=1;align=center;verticalAlign=middle;whiteSpace=wrap;rounded=0;" vertex="1" parent="1">
          <mxGeometry x="599" y="435" width="60" height="70" as="geometry" />
        </mxCell>
        <mxCell id="t2_muGHGEYKVTrrBP8fU-66" value="(1, n)" style="text;html=1;align=center;verticalAlign=middle;whiteSpace=wrap;rounded=0;" vertex="1" parent="1">
          <mxGeometry x="190" y="300" width="60" height="30" as="geometry" />
        </mxCell>
        <mxCell id="t2_muGHGEYKVTrrBP8fU-67" value="(1, 1)" style="text;html=1;align=center;verticalAlign=middle;whiteSpace=wrap;rounded=0;" vertex="1" parent="1">
          <mxGeometry x="408.13" y="300" width="60" height="30" as="geometry" />
        </mxCell>
        <mxCell id="t2_muGHGEYKVTrrBP8fU-68" value="(1, 1)" style="text;html=1;align=center;verticalAlign=middle;whiteSpace=wrap;rounded=0;" vertex="1" parent="1">
          <mxGeometry x="560" y="365" width="60" height="30" as="geometry" />
        </mxCell>
        <mxCell id="t2_muGHGEYKVTrrBP8fU-69" value="(1, n)" style="text;html=1;align=center;verticalAlign=middle;whiteSpace=wrap;rounded=0;" vertex="1" parent="1">
          <mxGeometry x="560" y="535" width="60" height="30" as="geometry" />
        </mxCell>
        <mxCell id="t2_muGHGEYKVTrrBP8fU-2" value="LINEA DE FACTURA" style="rounded=0;whiteSpace=wrap;html=1;" vertex="1" parent="1">
          <mxGeometry x="510" y="270" width="120" height="60" as="geometry" />
        </mxCell>
      </root>
    </mxGraphModel>
  </diagram>
</mxfile>
